# xmcd CD database file
#
# Track frame offsets:
#	150
#	17673
#	30633
#	43155
#	64927
#	77718
#	92453
#	108053
#	126119
#	139974
#	153980
#	174182
#	191580
#	206753
#	219389
#	234052
#
# Disc length: 3280 seconds
#
# Revision: 0
# Processed by: cddbd v1.5.2PL0 Copyright (c) Steve Scherf et al.
# Submitted via: CDex 1.51
#
DISCID=cb0cce10
DTITLE=Imelda May - Mayhem
DYEAR=2012
DGENRE=Jazz
TTITLE0=Pulling The Rug
TTITLE1=Psycho
TTITLE2=Mayhem
TTITLE3=Kentish Town Waltz
TTITLE4=All For You
TTITLE5=Eternity
TTITLE6=Inside Out
TTITLE7=Proud And Humble
TTITLE8=Sneaky Freak
TTITLE9=Bury My troubles
TTITLE10=Too Sad To Cry
TTITLE11=I'm Alive
TTITLE12=Let Me Out
TTITLE13=Tainted Love
TTITLE14=Johnny Got A Boom Boom
TTITLE15=Inside Out (Blue Jay Gonzalez Mix)
EXTD=YEAR: 2012
EXTT0=
EXTT1=
EXTT2=
EXTT3=
EXTT4=
EXTT5=
EXTT6=
EXTT7=
EXTT8=
EXTT9=
EXTT10=
EXTT11=
EXTT12=
EXTT13=
EXTT14=
EXTT15=
PLAYORDER=
